{"asset":{"version":"2.0","generator":"THREE.GLTFExporter"},"scenes":[{"name":"AuxScene","nodes":[0]}],"scene":0,"nodes":[{"mesh":0}],"bufferViews":[{"buffer":0,"byteOffset":0,"byteLength":89748,"target":34962,"byteStride":12},{"buffer":0,"byteOffset":89748,"byteLength":89748,"target":34962,"byteStride":12}],"buffers":[{"byteLength":179496,"uri":"data:application/octet-stream;base64,"}],"accessors":[{"bufferView":0,"componentType":5126,"count":7479,"max":[100.61190795898438,10.395973205566406,100.61190795898438],"min":[-100.78809356689453,0.19596900045871735,-100.78809356689453],"type":"VEC3"},{"bufferView":1,"componentType":5126,"count":7479,"max":[0.9330490231513977,1,0.9029352068901062],"min":[-0.6395916938781738,0.052934546023607254,-0.8065593838691711],"type":"VEC3"}],"materials":[{"pbrMetallicRoughness":{"baseColorFactor":[0.5019607843137255,0.5019607843137255,0.5019607843137255,1],"metallicFactor":0,"roughnessFactor":1}}],"meshes":[{"primitives":[{"mode":4,"attributes":{"POSITION":0,"NORMAL":1},"material":0}]}]}