{"asset":{"version":"2.0","generator":"THREE.GLTFExporter"},"scenes":[{"nodes":[0],"name":"AuxScene"}],"scene":0,"nodes":[{"mesh":0}],"bufferViews":[{"buffer":0,"byteOffset":0,"byteLength":203328,"target":34962,"byteStride":12},{"buffer":0,"byteOffset":203328,"byteLength":203328,"target":34962,"byteStride":12}],"buffers":[{"byteLength":406656,"uri":"data:application/octet-stream;base64,"}],"accessors":[{"bufferView":0,"componentType":5126,"count":16944,"max":[85.68438720703125,20.16473388671875,183.2308349609375],"min":[-193.31561279296875,-9.635265350341797,-95.76917266845703],"type":"VEC3"},{"bufferView":1,"componentType":5126,"count":16944,"max":[0.980952799320221,1,0.9743226766586304],"min":[-0.9871590733528137,0,-1],"type":"VEC3"}],"materials":[{"pbrMetallicRoughness":{"baseColorFactor":[0.5019607843137255,0.5019607843137255,0.5019607843137255,1],"metallicFactor":0,"roughnessFactor":1}}],"meshes":[{"primitives":[{"mode":4,"attributes":{"POSITION":0,"NORMAL":1},"material":0}]}]}